<svg width="55" height="55" viewBox="0 0 55 55" fill="none" xmlns="http://www.w3.org/2000/svg">
<path fill-rule="evenodd" clip-rule="evenodd" d="M27.5 1.71875C12.9393 1.71875 1.14581 13.5122 1.14581 28.0729C1.14581 39.7346 8.68969 49.5845 19.1655 53.0764C20.4832 53.307 20.9773 52.5164 20.9773 51.8246C20.9773 51.1987 20.9444 49.1233 20.9444 46.9161C14.3229 48.135 12.6099 45.3019 12.0828 43.8195C11.7863 43.0618 10.5015 40.7229 9.38149 40.097C8.45909 39.6029 7.14139 38.384 9.34855 38.351C11.4239 38.3181 12.9064 40.2617 13.4005 41.0523C15.7724 45.0384 19.5608 43.9184 21.0762 43.2266C21.3068 41.5135 21.9985 40.3605 22.7562 39.7017C16.8924 39.0428 10.7651 36.7698 10.7651 26.6893C10.7651 23.8233 11.7863 21.4514 13.4664 19.6066C13.2028 18.9478 12.2804 16.2465 13.7299 12.6228C13.7299 12.6228 15.9371 11.931 20.9773 15.3241C23.0857 14.7311 25.3258 14.4346 27.5659 14.4346C29.806 14.4346 32.0461 14.7311 34.1544 15.3241C39.1946 11.898 41.4018 12.6228 41.4018 12.6228C42.8513 16.2465 41.9289 18.9478 41.6653 19.6066C43.3454 21.4514 44.3666 23.7904 44.3666 26.6893C44.3666 36.8027 38.2064 39.0428 32.3426 39.7017C33.2979 40.5253 34.1215 42.1065 34.1215 44.5772C34.1215 48.1021 34.0885 50.9352 34.0885 51.8246C34.0885 52.5164 34.5827 53.34 35.9004 53.0764C46.3103 49.5845 53.8541 39.7017 53.8541 28.0729C53.8541 13.5122 42.0607 1.71875 27.5 1.71875Z" fill="white"/>
</svg>
