<svg width="55" height="55" viewBox="0 0 55 55" fill="none" xmlns="http://www.w3.org/2000/svg">
<g clip-path="url(#clip0_29_361)">
<path d="M0 27.5C0 42.6878 12.3122 55 27.5 55C42.6878 55 55 42.6878 55 27.5C55 12.3122 42.6878 0 27.5 0C12.3122 0 0 12.3122 0 27.5Z" fill="#494949"/>
<path d="M19.9375 41.25H14.0937V22.8594H19.9375V41.25ZM17.0156 20.2813C15.125 20.2813 13.75 18.9062 13.75 17.0156C13.75 15.125 15.2969 13.75 17.0156 13.75C18.9063 13.75 20.2813 15.125 20.2813 17.0156C20.2813 18.9062 18.9063 20.2813 17.0156 20.2813ZM41.25 41.25H35.4063V31.2813C35.4063 28.3594 34.2031 27.5 32.4844 27.5C30.7656 27.5 29.0469 28.875 29.0469 31.4531V41.25H23.2031V22.8594H28.7031V25.4375C29.2187 24.2344 31.2812 22.3438 34.2031 22.3438C37.4687 22.3438 40.9063 24.2344 40.9063 29.9062V41.25H41.25Z" fill="white"/>
</g>
<defs>
<clipPath id="clip0_29_361">
<rect width="55" height="55" fill="white"/>
</clipPath>
</defs>
</svg>
